<?xml version="1.0" encoding="UTF-8"?>
<!--Generator: Apple Native CoreSVG 123-->
<!DOCTYPE svg
PUBLIC "-//W3C//DTD SVG 1.1//EN"
       "http://www.w3.org/Graphics/SVG/1.1/DTD/svg11.dtd">
<svg version="1.1" xmlns="http://www.w3.org/2000/svg" xmlns:xlink="http://www.w3.org/1999/xlink" width="3300" height="2200">
 <!--glyph: "uni1000E5.medium", point size: 100.000000, font version: "Version 15.0d7e11", template writer version: "5"-->
 <g id="Notes">
  <rect height="2200" id="artboard" style="fill:white;opacity:1" width="3300" x="0" y="0"/>
  <line id="" style="fill:none;stroke:black;opacity:1;stroke-width:0.5;" x1="263" x2="3036" y1="292" y2="292"/>
  <text style="stroke:none;fill:black;font-family:-apple-system,&quot;SF Pro Display&quot;,&quot;SF Pro Text&quot;,Helvetica,sans-serif;font-weight:bold;" transform="matrix(1 0 0 1 263 322)">Weight/Scale Variations</text>
  <text style="stroke:none;fill:black;font-family:-apple-system,&quot;SF Pro Display&quot;,&quot;SF Pro Text&quot;,Helvetica,sans-serif;text-anchor:middle;" transform="matrix(1 0 0 1 559.711 322)">Ultralight</text>
  <text style="stroke:none;fill:black;font-family:-apple-system,&quot;SF Pro Display&quot;,&quot;SF Pro Text&quot;,Helvetica,sans-serif;text-anchor:middle;" transform="matrix(1 0 0 1 856.422 322)">Thin</text>
  <text style="stroke:none;fill:black;font-family:-apple-system,&quot;SF Pro Display&quot;,&quot;SF Pro Text&quot;,Helvetica,sans-serif;text-anchor:middle;" transform="matrix(1 0 0 1 1153.13 322)">Light</text>
  <text style="stroke:none;fill:black;font-family:-apple-system,&quot;SF Pro Display&quot;,&quot;SF Pro Text&quot;,Helvetica,sans-serif;text-anchor:middle;" transform="matrix(1 0 0 1 1449.84 322)">Regular</text>
  <text style="stroke:none;fill:black;font-family:-apple-system,&quot;SF Pro Display&quot;,&quot;SF Pro Text&quot;,Helvetica,sans-serif;text-anchor:middle;" transform="matrix(1 0 0 1 1746.56 322)">Medium</text>
  <text style="stroke:none;fill:black;font-family:-apple-system,&quot;SF Pro Display&quot;,&quot;SF Pro Text&quot;,Helvetica,sans-serif;text-anchor:middle;" transform="matrix(1 0 0 1 2043.27 322)">Semibold</text>
  <text style="stroke:none;fill:black;font-family:-apple-system,&quot;SF Pro Display&quot;,&quot;SF Pro Text&quot;,Helvetica,sans-serif;text-anchor:middle;" transform="matrix(1 0 0 1 2339.98 322)">Bold</text>
  <text style="stroke:none;fill:black;font-family:-apple-system,&quot;SF Pro Display&quot;,&quot;SF Pro Text&quot;,Helvetica,sans-serif;text-anchor:middle;" transform="matrix(1 0 0 1 2636.69 322)">Heavy</text>
  <text style="stroke:none;fill:black;font-family:-apple-system,&quot;SF Pro Display&quot;,&quot;SF Pro Text&quot;,Helvetica,sans-serif;text-anchor:middle;" transform="matrix(1 0 0 1 2933.4 322)">Black</text>
  <line id="" style="fill:none;stroke:black;opacity:1;stroke-width:0.5;" x1="263" x2="3036" y1="1903" y2="1903"/>
  <g id="" transform="matrix(1 0 0 1 263 1933)">
   <path d="M 9.24805 0.830078 C 13.5547 0.830078 17.1387 -2.74414 17.1387 -7.05078 C 17.1387 -11.3574 13.5449 -14.9316 9.23828 -14.9316 C 4.94141 -14.9316 1.36719 -11.3574 1.36719 -7.05078 C 1.36719 -2.74414 4.95117 0.830078 9.24805 0.830078 Z M 9.24805 -0.654297 C 5.70312 -0.654297 2.87109 -3.49609 2.87109 -7.05078 C 2.87109 -10.6055 5.69336 -13.4473 9.23828 -13.4473 C 12.793 -13.4473 15.6348 -10.6055 15.6445 -7.05078 C 15.6543 -3.49609 12.8027 -0.654297 9.24805 -0.654297 Z M 9.22852 -3.42773 C 9.69727 -3.42773 9.9707 -3.74023 9.9707 -4.25781 L 9.9707 -6.31836 L 12.1973 -6.31836 C 12.6953 -6.31836 13.0371 -6.57227 13.0371 -7.04102 C 13.0371 -7.51953 12.7148 -7.7832 12.1973 -7.7832 L 9.9707 -7.7832 L 9.9707 -10.0098 C 9.9707 -10.5273 9.69727 -10.8496 9.22852 -10.8496 C 8.75977 -10.8496 8.50586 -10.5078 8.50586 -10.0098 L 8.50586 -7.7832 L 6.29883 -7.7832 C 5.78125 -7.7832 5.44922 -7.51953 5.44922 -7.04102 C 5.44922 -6.57227 5.80078 -6.31836 6.29883 -6.31836 L 8.50586 -6.31836 L 8.50586 -4.25781 C 8.50586 -3.75977 8.75977 -3.42773 9.22852 -3.42773 Z"/>
  </g>
  <g id="" transform="matrix(1 0 0 1 281.506 1933)">
   <path d="M 11.709 2.91016 C 17.1582 2.91016 21.6699 -1.60156 21.6699 -7.05078 C 21.6699 -12.4902 17.1484 -17.0117 11.6992 -17.0117 C 6.25977 -17.0117 1.74805 -12.4902 1.74805 -7.05078 C 1.74805 -1.60156 6.26953 2.91016 11.709 2.91016 Z M 11.709 1.25 C 7.09961 1.25 3.41797 -2.44141 3.41797 -7.05078 C 3.41797 -11.6504 7.08984 -15.3516 11.6992 -15.3516 C 16.3086 -15.3516 20 -11.6504 20.0098 -7.05078 C 20.0195 -2.44141 16.3184 1.25 11.709 1.25 Z M 11.6895 -2.41211 C 12.207 -2.41211 12.5195 -2.77344 12.5195 -3.33984 L 12.5195 -6.23047 L 15.5762 -6.23047 C 16.123 -6.23047 16.5039 -6.51367 16.5039 -7.03125 C 16.5039 -7.55859 16.1426 -7.86133 15.5762 -7.86133 L 12.5195 -7.86133 L 12.5195 -10.9277 C 12.5195 -11.5039 12.207 -11.8555 11.6895 -11.8555 C 11.1719 -11.8555 10.8789 -11.4844 10.8789 -10.9277 L 10.8789 -7.86133 L 7.83203 -7.86133 C 7.26562 -7.86133 6.89453 -7.55859 6.89453 -7.03125 C 6.89453 -6.51367 7.28516 -6.23047 7.83203 -6.23047 L 10.8789 -6.23047 L 10.8789 -3.33984 C 10.8789 -2.79297 11.1719 -2.41211 11.6895 -2.41211 Z"/>
  </g>
  <g id="" transform="matrix(1 0 0 1 304.924 1933)">
   <path d="M 14.9707 5.67383 C 21.9336 5.67383 27.6953 -0.078125 27.6953 -7.04102 C 27.6953 -14.0039 21.9238 -19.7559 14.9609 -19.7559 C 8.00781 -19.7559 2.25586 -14.0039 2.25586 -7.04102 C 2.25586 -0.078125 8.01758 5.67383 14.9707 5.67383 Z M 14.9707 3.85742 C 8.93555 3.85742 4.08203 -1.00586 4.08203 -7.04102 C 4.08203 -13.0762 8.92578 -17.9395 14.9609 -17.9395 C 21.0059 -17.9395 25.8594 -13.0762 25.8691 -7.04102 C 25.8789 -1.00586 21.0156 3.85742 14.9707 3.85742 Z M 14.9512 -1.06445 C 15.5176 -1.06445 15.8691 -1.45508 15.8691 -2.06055 L 15.8691 -6.13281 L 20.1074 -6.13281 C 20.6934 -6.13281 21.1133 -6.46484 21.1133 -7.02148 C 21.1133 -7.59766 20.7227 -7.93945 20.1074 -7.93945 L 15.8691 -7.93945 L 15.8691 -12.1875 C 15.8691 -12.8027 15.5176 -13.1934 14.9512 -13.1934 C 14.3848 -13.1934 14.0625 -12.7832 14.0625 -12.1875 L 14.0625 -7.93945 L 9.83398 -7.93945 C 9.21875 -7.93945 8.80859 -7.59766 8.80859 -7.02148 C 8.80859 -6.46484 9.23828 -6.13281 9.83398 -6.13281 L 14.0625 -6.13281 L 14.0625 -2.06055 C 14.0625 -1.47461 14.3848 -1.06445 14.9512 -1.06445 Z"/>
  </g>
  <text style="stroke:none;fill:black;font-family:-apple-system,&quot;SF Pro Display&quot;,&quot;SF Pro Text&quot;,Helvetica,sans-serif;font-weight:bold;" transform="matrix(1 0 0 1 263 1953)">Design Variations</text>
  <text style="stroke:none;fill:black;font-family:-apple-system,&quot;SF Pro Display&quot;,&quot;SF Pro Text&quot;,Helvetica,sans-serif;" transform="matrix(1 0 0 1 263 1971)">Symbols are supported in up to nine weights and three scales.</text>
  <text style="stroke:none;fill:black;font-family:-apple-system,&quot;SF Pro Display&quot;,&quot;SF Pro Text&quot;,Helvetica,sans-serif;" transform="matrix(1 0 0 1 263 1989)">For optimal layout with text and other symbols, vertically align</text>
  <text style="stroke:none;fill:black;font-family:-apple-system,&quot;SF Pro Display&quot;,&quot;SF Pro Text&quot;,Helvetica,sans-serif;" transform="matrix(1 0 0 1 263 2007)">symbols with the adjacent text.</text>
  <rect height="14" id="" style="fill:#00AEEF;stroke:none;opacity:0.4;" width="3" x="776" y="1919"/>
  <g id="" transform="matrix(1 0 0 1 779 1933)">
   <path d="M 10.5273 0 L 12.373 0 L 7.17773 -14.0918 L 5.43945 -14.0918 L 0.244141 0 L 2.08984 0 L 3.50586 -4.0332 L 9.11133 -4.0332 Z M 6.2793 -11.9531 L 6.33789 -11.9531 L 8.59375 -5.52734 L 4.02344 -5.52734 Z"/>
  </g>
  <rect height="14" id="" style="fill:#00AEEF;stroke:none;opacity:0.4;" width="3" x="791.617" y="1919"/>
  <text style="stroke:none;fill:black;font-family:-apple-system,&quot;SF Pro Display&quot;,&quot;SF Pro Text&quot;,Helvetica,sans-serif;font-weight:bold;" transform="matrix(1 0 0 1 776 1953)">Margins</text>
  <text style="stroke:none;fill:black;font-family:-apple-system,&quot;SF Pro Display&quot;,&quot;SF Pro Text&quot;,Helvetica,sans-serif;" transform="matrix(1 0 0 1 776 1971)">Leading and trailing margins on the left and right side of each symbol</text>
  <text style="stroke:none;fill:black;font-family:-apple-system,&quot;SF Pro Display&quot;,&quot;SF Pro Text&quot;,Helvetica,sans-serif;" transform="matrix(1 0 0 1 776 1989)">can be adjusted by modifying the width of the blue rectangles.</text>
  <text style="stroke:none;fill:black;font-family:-apple-system,&quot;SF Pro Display&quot;,&quot;SF Pro Text&quot;,Helvetica,sans-serif;" transform="matrix(1 0 0 1 776 2007)">Modifications are automatically applied proportionally to all</text>
  <text style="stroke:none;fill:black;font-family:-apple-system,&quot;SF Pro Display&quot;,&quot;SF Pro Text&quot;,Helvetica,sans-serif;" transform="matrix(1 0 0 1 776 2025)">scales and weights.</text>
  <g id="" transform="matrix(1 0 0 1 1289 1933)">
   <path d="M 2.83203 3.11523 L 4.375 4.6582 C 5.22461 5.48828 6.19141 5.41992 7.06055 4.46289 L 17.2754 -6.66016 C 17.7051 -6.36719 18.0957 -6.37695 18.5645 -6.47461 L 19.6094 -6.68945 L 20.3027 -5.99609 L 20.2539 -5.47852 C 20.1855 -4.95117 20.3516 -4.53125 20.8496 -4.0332 L 21.6602 -3.22266 C 22.168 -2.71484 22.8223 -2.68555 23.3008 -3.16406 L 26.5527 -6.41602 C 27.0312 -6.89453 27.0117 -7.54883 26.5039 -8.05664 L 25.6836 -8.87695 C 25.1855 -9.375 24.7754 -9.55078 24.2383 -9.47266 L 23.7109 -9.41406 L 23.0566 -10.0781 L 23.3398 -11.2207 C 23.4863 -11.7871 23.3398 -12.2559 22.7148 -12.8613 L 20.3027 -15.2539 C 16.7578 -18.7793 12.2266 -18.6719 9.11133 -15.5371 C 8.69141 -15.1074 8.64258 -14.5215 8.91602 -14.0918 C 9.15039 -13.7207 9.62891 -13.4961 10.2734 -13.6621 C 11.7871 -14.043 13.3008 -13.9258 14.7852 -12.9199 L 14.1602 -11.3379 C 13.9258 -10.752 13.9453 -10.2734 14.1797 -9.83398 L 3.01758 0.439453 C 2.08008 1.30859 1.97266 2.25586 2.83203 3.11523 Z M 10.6738 -15.1465 C 13.3398 -17.1387 16.6504 -16.8262 19.0527 -14.4141 L 21.6797 -11.8066 C 21.9141 -11.5723 21.9434 -11.3867 21.8848 -11.0938 L 21.5039 -9.53125 L 23.0762 -7.95898 L 24.043 -8.04688 C 24.3262 -8.07617 24.4141 -8.05664 24.6387 -7.83203 L 25.2637 -7.20703 L 22.5098 -4.46289 L 21.8848 -5.07812 C 21.6602 -5.30273 21.6406 -5.40039 21.6699 -5.68359 L 21.7578 -6.64062 L 20.1953 -8.20312 L 18.5742 -7.89062 C 18.291 -7.83203 18.1445 -7.83203 17.9102 -8.07617 L 15.7324 -10.2539 C 15.5078 -10.4883 15.4785 -10.625 15.6055 -10.9473 L 16.5527 -13.2227 C 14.9512 -14.7559 12.8418 -15.6055 10.8008 -14.9512 C 10.7129 -14.9219 10.6445 -14.9414 10.6152 -14.9805 C 10.5859 -15.0293 10.5859 -15.0781 10.6738 -15.1465 Z M 4.10156 2.41211 C 3.61328 1.91406 3.78906 1.61133 4.12109 1.30859 L 15.0781 -8.80859 L 16.3086 -7.57812 L 6.15234 3.34961 C 5.84961 3.68164 5.46875 3.7793 5.06836 3.37891 Z"/>
  </g>
  <text style="stroke:none;fill:black;font-family:-apple-system,&quot;SF Pro Display&quot;,&quot;SF Pro Text&quot;,Helvetica,sans-serif;font-weight:bold;" transform="matrix(1 0 0 1 1289 1953)">Exporting</text>
  <text style="stroke:none;fill:black;font-family:-apple-system,&quot;SF Pro Display&quot;,&quot;SF Pro Text&quot;,Helvetica,sans-serif;" transform="matrix(1 0 0 1 1289 1971)">Symbols should be outlined when exporting to ensure the</text>
  <text style="stroke:none;fill:black;font-family:-apple-system,&quot;SF Pro Display&quot;,&quot;SF Pro Text&quot;,Helvetica,sans-serif;" transform="matrix(1 0 0 1 1289 1989)">design is preserved when submitting to Xcode.</text>
  <text id="template-version" style="stroke:none;fill:black;font-family:-apple-system,&quot;SF Pro Display&quot;,&quot;SF Pro Text&quot;,Helvetica,sans-serif;text-anchor:end;" transform="matrix(1 0 0 1 3036 1933)">Template v.1.0</text>
  <text style="stroke:none;fill:black;font-family:-apple-system,&quot;SF Pro Display&quot;,&quot;SF Pro Text&quot;,Helvetica,sans-serif;text-anchor:end;" transform="matrix(1 0 0 1 3036 1951)">Generated from equal.square.fill</text>
  <text style="stroke:none;fill:black;font-family:-apple-system,&quot;SF Pro Display&quot;,&quot;SF Pro Text&quot;,Helvetica,sans-serif;text-anchor:end;" transform="matrix(1 0 0 1 3036 1969)">Typeset at 100 points</text>
  <text style="stroke:none;fill:black;font-family:-apple-system,&quot;SF Pro Display&quot;,&quot;SF Pro Text&quot;,Helvetica,sans-serif;" transform="matrix(1 0 0 1 263 726)">Small</text>
  <text style="stroke:none;fill:black;font-family:-apple-system,&quot;SF Pro Display&quot;,&quot;SF Pro Text&quot;,Helvetica,sans-serif;" transform="matrix(1 0 0 1 263 1156)">Medium</text>
  <text style="stroke:none;fill:black;font-family:-apple-system,&quot;SF Pro Display&quot;,&quot;SF Pro Text&quot;,Helvetica,sans-serif;" transform="matrix(1 0 0 1 263 1586)">Large</text>
 </g>
 <g id="Guides">
  <g id="H-reference" style="fill:#27AAE1;stroke:none;" transform="matrix(1 0 0 1 339 696)">
   <path d="M 54.9316 0 L 57.666 0 L 30.5664 -70.459 L 28.0762 -70.459 L 0.976562 0 L 3.66211 0 L 12.9395 -24.4629 L 45.7031 -24.4629 Z M 29.1992 -67.0898 L 29.4434 -67.0898 L 44.8242 -26.709 L 13.8184 -26.709 Z"/>
  </g>
  <line id="Baseline-S" style="fill:none;stroke:#27AAE1;opacity:1;stroke-width:0.577;" x1="263" x2="3036" y1="696" y2="696"/>
  <line id="Capline-S" style="fill:none;stroke:#27AAE1;opacity:1;stroke-width:0.577;" x1="263" x2="3036" y1="625.541" y2="625.541"/>
  <g id="H-reference" style="fill:#27AAE1;stroke:none;" transform="matrix(1 0 0 1 339 1126)">
   <path d="M 54.9316 0 L 57.666 0 L 30.5664 -70.459 L 28.0762 -70.459 L 0.976562 0 L 3.66211 0 L 12.9395 -24.4629 L 45.7031 -24.4629 Z M 29.1992 -67.0898 L 29.4434 -67.0898 L 44.8242 -26.709 L 13.8184 -26.709 Z"/>
  </g>
  <line id="Baseline-M" style="fill:none;stroke:#27AAE1;opacity:1;stroke-width:0.577;" x1="263" x2="3036" y1="1126" y2="1126"/>
  <line id="Capline-M" style="fill:none;stroke:#27AAE1;opacity:1;stroke-width:0.577;" x1="263" x2="3036" y1="1055.54" y2="1055.54"/>
  <g id="H-reference" style="fill:#27AAE1;stroke:none;" transform="matrix(1 0 0 1 339 1556)">
   <path d="M 54.9316 0 L 57.666 0 L 30.5664 -70.459 L 28.0762 -70.459 L 0.976562 0 L 3.66211 0 L 12.9395 -24.4629 L 45.7031 -24.4629 Z M 29.1992 -67.0898 L 29.4434 -67.0898 L 44.8242 -26.709 L 13.8184 -26.709 Z"/>
  </g>
  <line id="Baseline-L" style="fill:none;stroke:#27AAE1;opacity:1;stroke-width:0.577;" x1="263" x2="3036" y1="1556" y2="1556"/>
  <line id="Capline-L" style="fill:none;stroke:#27AAE1;opacity:1;stroke-width:0.577;" x1="263" x2="3036" y1="1485.54" y2="1485.54"/>
  <rect height="119.336" id="left-margin" style="fill:#00AEEF;stroke:none;opacity:0.4;" width="12.4512" x="1392.45" y="1030.79"/>
  <rect height="119.336" id="right-margin" style="fill:#00AEEF;stroke:none;opacity:0.4;" width="12.4512" x="1494.79" y="1030.79"/>
 </g>
 <g id="Symbols">
  <g id="Black-L" transform="matrix(1 0 0 1 2855.62 1556)">
   <path d="M 39.9902 26.5137 L 115.576 26.5137 C 130.811 26.5137 139.502 17.8711 139.502 2.68555 L 139.502 -73.0957 C 139.502 -88.2812 130.811 -96.875 115.576 -96.875 L 39.9902 -96.875 C 24.7559 -96.875 16.0645 -88.2812 16.0645 -73.0957 L 16.0645 2.68555 C 16.0645 17.8711 24.7559 26.5137 39.9902 26.5137 Z M 58.0078 -39.6484 C 52.4414 -39.6484 48.8281 -42.627 48.8281 -47.5098 C 48.8281 -52.5391 52.3438 -55.4199 58.0078 -55.4199 L 98.6816 -55.4199 C 104.297 -55.4199 107.812 -52.3926 107.812 -47.5098 C 107.812 -42.627 104.199 -39.6484 98.6328 -39.6484 Z M 58.0078 -14.8438 C 52.4414 -14.8438 48.8281 -17.8223 48.8281 -22.7051 C 48.8281 -27.6855 52.3438 -30.6152 58.0078 -30.6152 L 98.6816 -30.6152 C 104.297 -30.6152 107.812 -27.6367 107.812 -22.7051 C 107.812 -17.8223 104.199 -14.8438 98.6328 -14.8438 Z"/>
  </g>
  <g id="Heavy-L" transform="matrix(1 0 0 1 2559.93 1556)">
   <path d="M 38.8184 25.4883 L 114.697 25.4883 C 129.346 25.4883 137.451 17.4316 137.451 2.88086 L 137.451 -73.2422 C 137.451 -87.793 129.346 -95.8496 114.697 -95.8496 L 38.8184 -95.8496 C 24.2188 -95.8496 16.0645 -87.793 16.0645 -73.2422 L 16.0645 2.88086 C 16.0645 17.4316 24.2188 25.4883 38.8184 25.4883 Z M 55.6152 -40.4297 C 50.6836 -40.4297 47.4121 -43.0176 47.4121 -47.4121 C 47.4121 -51.9531 50.5371 -54.541 55.6152 -54.541 L 98.7793 -54.541 C 103.76 -54.541 106.885 -51.8555 106.885 -47.4121 C 106.885 -43.0176 103.662 -40.4297 98.7305 -40.4297 Z M 55.6152 -15.7715 C 50.6836 -15.7715 47.4121 -18.4082 47.4121 -22.8027 C 47.4121 -27.2461 50.5371 -29.8828 55.6152 -29.8828 L 98.7793 -29.8828 C 103.76 -29.8828 106.885 -27.2461 106.885 -22.8027 C 106.885 -18.4082 103.662 -15.7715 98.7305 -15.7715 Z"/>
  </g>
  <g id="Bold-L" transform="matrix(1 0 0 1 2264.37 1556)">
   <path d="M 37.5 24.3652 L 113.721 24.3652 C 127.637 24.3652 135.156 16.8945 135.156 3.07617 L 135.156 -73.3887 C 135.156 -87.207 127.637 -94.7266 113.721 -94.7266 L 37.5 -94.7266 C 23.6328 -94.7266 16.0645 -87.2559 16.0645 -73.3887 L 16.0645 3.07617 C 16.0645 16.8945 23.6328 24.3652 37.5 24.3652 Z M 52.9297 -41.3086 C 48.6816 -41.3086 45.8984 -43.5059 45.8984 -47.3633 C 45.8984 -51.3184 48.584 -53.5156 52.9297 -53.5156 L 98.8281 -53.5156 C 103.125 -53.5156 105.859 -51.2695 105.859 -47.3633 C 105.859 -43.5059 103.027 -41.3086 98.8281 -41.3086 Z M 52.9297 -16.7969 C 48.6816 -16.7969 45.8984 -19.043 45.8984 -22.9004 C 45.8984 -26.8066 48.584 -29.0039 52.9297 -29.0039 L 98.8281 -29.0039 C 103.125 -29.0039 105.859 -26.7578 105.859 -22.9004 C 105.859 -19.043 103.027 -16.7969 98.8281 -16.7969 Z"/>
  </g>
  <g id="Semibold-L" transform="matrix(1 0 0 1 1968.44 1556)">
   <path d="M 36.6211 23.584 L 113.037 23.584 C 126.514 23.584 133.594 16.5039 133.594 3.17383 L 133.594 -73.5352 C 133.594 -86.8164 126.514 -93.9453 113.037 -93.9453 L 36.6211 -93.9453 C 23.1934 -93.9453 16.0645 -86.8652 16.0645 -73.5352 L 16.0645 3.17383 C 16.0645 16.5527 23.1934 23.584 36.6211 23.584 Z M 51.0742 -41.8945 C 47.3145 -41.8945 44.8242 -43.8477 44.8242 -47.3145 C 44.8242 -50.8789 47.2168 -52.832 51.0742 -52.832 L 98.9258 -52.832 C 102.734 -52.832 105.127 -50.8301 105.127 -47.3145 C 105.127 -43.8477 102.637 -41.8945 98.877 -41.8945 Z M 51.0742 -17.5293 C 47.3145 -17.5293 44.8242 -19.4824 44.8242 -22.9492 C 44.8242 -26.5137 47.2168 -28.418 51.0742 -28.418 L 98.9258 -28.418 C 102.734 -28.418 105.127 -26.4648 105.127 -22.9492 C 105.127 -19.4824 102.637 -17.5293 98.877 -17.5293 Z"/>
  </g>
  <g id="Medium-L" transform="matrix(1 0 0 1 1672.31 1556)">
   <path d="M 35.9375 22.998 L 112.5 22.998 C 125.635 22.998 132.422 16.2109 132.422 3.27148 L 132.422 -73.6328 C 132.422 -86.5234 125.635 -93.3105 112.5 -93.3105 L 35.9375 -93.3105 C 22.9004 -93.3105 16.0645 -86.5723 16.0645 -73.6328 L 16.0645 3.27148 C 16.0645 16.2598 22.9004 22.998 35.9375 22.998 Z M 49.6582 -42.3828 C 46.2891 -42.3828 43.9941 -44.0918 43.9941 -47.2656 C 43.9941 -50.5371 46.1914 -52.2949 49.6582 -52.2949 L 98.9258 -52.2949 C 102.393 -52.2949 104.59 -50.5371 104.59 -47.2656 C 104.59 -44.0918 102.295 -42.3828 98.9258 -42.3828 Z M 49.6582 -18.0664 C 46.2891 -18.0664 43.9941 -19.7754 43.9941 -22.998 C 43.9941 -26.2695 46.1914 -27.9785 49.6582 -27.9785 L 98.9258 -27.9785 C 102.393 -27.9785 104.59 -26.2207 104.59 -22.998 C 104.59 -19.7754 102.295 -18.0664 98.9258 -18.0664 Z"/>
  </g>
  <g id="Regular-L" transform="matrix(1 0 0 1 1376.38 1556)">
   <path d="M 35.0586 22.2168 L 111.816 22.2168 C 124.463 22.2168 130.859 15.8691 130.859 3.41797 L 130.859 -73.7305 C 130.859 -86.1816 124.463 -92.5293 111.816 -92.5293 L 35.0586 -92.5293 C 22.4609 -92.5293 16.0645 -86.2305 16.0645 -73.7305 L 16.0645 3.41797 C 16.0645 15.918 22.4609 22.2168 35.0586 22.2168 Z M 47.8516 -42.9688 C 44.9219 -42.9688 42.9688 -44.3848 42.9688 -47.2168 C 42.9688 -50.0977 44.8242 -51.6113 47.8516 -51.6113 L 99.0234 -51.6113 C 102.002 -51.6113 103.906 -50.0977 103.906 -47.2168 C 103.906 -44.3848 101.904 -42.9688 99.0234 -42.9688 Z M 47.8516 -18.75 C 44.9219 -18.75 42.9688 -20.2148 42.9688 -23.0469 C 42.9688 -25.9277 44.8242 -27.4414 47.8516 -27.4414 L 99.0234 -27.4414 C 102.002 -27.4414 103.906 -25.9277 103.906 -23.0469 C 103.906 -20.2148 101.904 -18.75 99.0234 -18.75 Z"/>
  </g>
  <g id="Light-L" transform="matrix(1 0 0 1 1080.5 1556)">
   <path d="M 34.0332 21.4355 L 111.23 21.4355 C 123.096 21.4355 129.199 15.2344 129.199 3.56445 L 129.199 -73.8281 C 129.199 -85.5469 123.096 -91.6992 111.23 -91.6992 L 34.0332 -91.6992 C 22.168 -91.6992 16.0645 -85.6445 16.0645 -73.8281 L 16.0645 3.56445 C 16.0645 15.3809 22.168 21.4355 34.0332 21.4355 Z M 46.0449 -43.75 C 43.8965 -43.75 42.334 -44.873 42.334 -47.0703 C 42.334 -49.2188 43.7988 -50.4395 46.0449 -50.4395 L 99.1211 -50.4395 C 101.367 -50.4395 102.832 -49.2188 102.832 -47.0703 C 102.832 -44.873 101.27 -43.75 99.1211 -43.75 Z M 46.0449 -19.9219 C 43.8965 -19.9219 42.334 -21.1426 42.334 -23.291 C 42.334 -25.4395 43.7988 -26.6113 46.0449 -26.6113 L 99.1211 -26.6113 C 101.367 -26.6113 102.832 -25.4395 102.832 -23.291 C 102.832 -21.1426 101.27 -19.9219 99.1211 -19.9219 Z"/>
  </g>
  <g id="Thin-L" transform="matrix(1 0 0 1 784.889 1556)">
   <path d="M 32.666 20.3613 L 110.352 20.3613 C 121.24 20.3613 127.002 14.4531 127.002 3.75977 L 127.002 -73.9746 C 127.002 -84.7168 121.24 -90.5762 110.352 -90.5762 L 32.666 -90.5762 C 21.7773 -90.5762 16.0645 -84.8633 16.0645 -73.9746 L 16.0645 3.75977 C 16.0645 14.6484 21.7773 20.3613 32.666 20.3613 Z M 43.7012 -44.8242 C 42.4805 -44.8242 41.5527 -45.5566 41.5527 -46.8262 C 41.5527 -48.0469 42.4805 -48.877 43.7012 -48.877 L 99.2676 -48.877 C 100.488 -48.877 101.416 -48.0469 101.416 -46.8262 C 101.416 -45.5566 100.488 -44.8242 99.2676 -44.8242 Z M 43.7012 -21.4844 C 42.4805 -21.4844 41.5527 -22.3145 41.5527 -23.5352 C 41.5527 -24.8047 42.4805 -25.5859 43.7012 -25.5859 L 99.2676 -25.5859 C 100.488 -25.5859 101.416 -24.8047 101.416 -23.5352 C 101.416 -22.3145 100.488 -21.4844 99.2676 -21.4844 Z"/>
  </g>
  <g id="Ultralight-L" transform="matrix(1 0 0 1 488.739 1556)">
   <path d="M 31.9824 19.7754 L 109.961 19.7754 C 120.312 19.7754 125.879 14.0625 125.879 3.85742 L 125.879 -74.0723 C 125.879 -84.2773 120.312 -89.9902 109.961 -89.9902 L 31.9824 -89.9902 C 21.582 -89.9902 16.0645 -84.4727 16.0645 -74.0723 L 16.0645 3.85742 C 16.0645 14.2578 21.582 19.7754 31.9824 19.7754 Z M 42.5293 -45.3613 C 41.7969 -45.3613 41.1133 -45.8984 41.1133 -46.7285 C 41.1133 -47.4609 41.7969 -48.0957 42.5293 -48.0957 L 99.3164 -48.0957 C 100.049 -48.0957 100.732 -47.4609 100.732 -46.7285 C 100.732 -45.8984 100.049 -45.3613 99.3164 -45.3613 Z M 42.5293 -22.3145 C 41.7969 -22.3145 41.1133 -22.9492 41.1133 -23.6816 C 41.1133 -24.5117 41.7969 -25.0488 42.5293 -25.0488 L 99.3164 -25.0488 C 100.049 -25.0488 100.732 -24.5117 100.732 -23.6816 C 100.732 -22.9492 100.049 -22.3145 99.3164 -22.3145 Z"/>
  </g>
  <g id="Black-M" transform="matrix(1 0 0 1 2872.19 1126)">
   <path d="M 31.9824 13.5742 L 90.4297 13.5742 C 102.686 13.5742 109.961 6.29883 109.961 -5.95703 L 109.961 -64.4043 C 109.961 -76.6602 102.686 -83.9355 90.4297 -83.9355 L 31.9824 -83.9355 C 19.7266 -83.9355 12.4512 -76.6602 12.4512 -64.4043 L 12.4512 -5.95703 C 12.4512 6.29883 19.7266 13.5742 31.9824 13.5742 Z M 47.2168 -38.0371 C 42.4316 -38.0371 39.3555 -40.6738 39.3555 -44.7266 C 39.3555 -48.9258 42.3828 -51.4648 47.2168 -51.4648 L 76.4648 -51.4648 C 81.25 -51.4648 84.2285 -48.8281 84.2285 -44.7266 C 84.2285 -40.6738 81.1523 -38.0371 76.3672 -38.0371 Z M 47.2168 -18.7988 C 42.4316 -18.7988 39.3555 -21.4844 39.3555 -25.5371 C 39.3555 -29.6875 42.3828 -32.2754 47.2168 -32.2754 L 76.4648 -32.2754 C 81.25 -32.2754 84.2285 -29.5898 84.2285 -25.5371 C 84.2285 -21.4844 81.1523 -18.7988 76.3672 -18.7988 Z"/>
  </g>
  <g id="Heavy-M" transform="matrix(1 0 0 1 2576.39 1126)">
   <path d="M 31.0059 12.6465 L 89.6484 12.6465 C 101.416 12.6465 108.154 5.9082 108.154 -5.81055 L 108.154 -64.5508 C 108.154 -76.2695 101.416 -83.0566 89.6484 -83.0566 L 31.0059 -83.0566 C 19.2383 -83.0566 12.4512 -76.3184 12.4512 -64.5508 L 12.4512 -5.81055 C 12.4512 5.9082 19.2383 12.6465 31.0059 12.6465 Z M 45.0684 -38.6719 C 40.7715 -38.6719 38.0371 -40.9668 38.0371 -44.7266 C 38.0371 -48.5352 40.7227 -50.7812 45.0684 -50.7812 L 76.5137 -50.7812 C 80.8105 -50.7812 83.4961 -48.4375 83.4961 -44.7266 C 83.4961 -40.9668 80.7129 -38.6719 76.4648 -38.6719 Z M 45.0684 -19.5312 C 40.7715 -19.5312 38.0371 -21.8262 38.0371 -25.5859 C 38.0371 -29.3457 40.7227 -31.6406 45.0684 -31.6406 L 76.5137 -31.6406 C 80.8105 -31.6406 83.4961 -29.2969 83.4961 -25.5859 C 83.4961 -21.8262 80.7129 -19.5312 76.4648 -19.5312 Z"/>
  </g>
  <g id="Bold-M" transform="matrix(1 0 0 1 2280.68 1126)">
   <path d="M 29.8828 11.6699 L 88.7207 11.6699 C 99.9512 11.6699 106.152 5.46875 106.152 -5.66406 L 106.152 -64.6973 C 106.152 -75.8789 99.9512 -82.0312 88.7207 -82.0312 L 29.8828 -82.0312 C 18.6523 -82.0312 12.4512 -75.8789 12.4512 -64.6973 L 12.4512 -5.66406 C 12.4512 5.51758 18.6523 11.6699 29.8828 11.6699 Z M 42.6758 -39.4043 C 38.916 -39.4043 36.5234 -41.3574 36.5234 -44.6777 C 36.5234 -48.0957 38.8672 -50.0488 42.6758 -50.0488 L 76.5625 -50.0488 C 80.3223 -50.0488 82.666 -48.0469 82.666 -44.6777 C 82.666 -41.3574 80.2246 -39.4043 76.5137 -39.4043 Z M 42.6758 -20.3125 C 38.916 -20.3125 36.5234 -22.2656 36.5234 -25.6348 C 36.5234 -29.0039 38.8672 -30.957 42.6758 -30.957 L 76.5625 -30.957 C 80.3223 -30.957 82.666 -28.9551 82.666 -25.6348 C 82.666 -22.2656 80.2246 -20.3125 76.5137 -20.3125 Z"/>
  </g>
  <g id="Semibold-M" transform="matrix(1 0 0 1 1984.65 1126)">
   <path d="M 29.1016 10.9863 L 88.0859 10.9863 C 98.9746 10.9863 104.785 5.17578 104.785 -5.56641 L 104.785 -64.8438 C 104.785 -75.5859 98.9746 -81.3477 88.0859 -81.3477 L 29.1016 -81.3477 C 18.2617 -81.3477 12.4512 -75.5859 12.4512 -64.8438 L 12.4512 -5.56641 C 12.4512 5.22461 18.2617 10.9863 29.1016 10.9863 Z M 40.9668 -39.8926 C 37.6465 -39.8926 35.4492 -41.6016 35.4492 -44.6289 C 35.4492 -47.8027 37.5977 -49.5117 40.9668 -49.5117 L 76.6113 -49.5117 C 79.9805 -49.5117 82.1289 -47.7539 82.1289 -44.6289 C 82.1289 -41.6016 79.8828 -39.8926 76.5625 -39.8926 Z M 40.9668 -20.8496 C 37.6465 -20.8496 35.4492 -22.5586 35.4492 -25.6348 C 35.4492 -28.7598 37.5977 -30.4688 40.9668 -30.4688 L 76.6113 -30.4688 C 79.9805 -30.4688 82.1289 -28.7109 82.1289 -25.6348 C 82.1289 -22.5586 79.8828 -20.8496 76.5625 -20.8496 Z"/>
  </g>
  <g id="Medium-M" transform="matrix(1 0 0 1 1688.47 1126)">
   <path d="M 28.5156 10.4492 L 87.6465 10.4492 C 98.2422 10.4492 103.711 4.98047 103.711 -5.46875 L 103.711 -64.8926 C 103.711 -75.3418 98.2422 -80.8105 87.6465 -80.8105 L 28.5156 -80.8105 C 17.9688 -80.8105 12.4512 -75.3906 12.4512 -64.8926 L 12.4512 -5.46875 C 12.4512 4.98047 17.9688 10.4492 28.5156 10.4492 Z M 39.7461 -40.2832 C 36.6699 -40.2832 34.668 -41.7969 34.668 -44.6289 C 34.668 -47.5586 36.6211 -49.1211 39.7461 -49.1211 L 76.6113 -49.1211 C 79.7363 -49.1211 81.6895 -47.5586 81.6895 -44.6289 C 81.6895 -41.7969 79.6387 -40.2832 76.6113 -40.2832 Z M 39.7461 -21.2402 C 36.6699 -21.2402 34.668 -22.8027 34.668 -25.6836 C 34.668 -28.5645 36.6211 -30.127 39.7461 -30.127 L 76.6113 -30.127 C 79.7363 -30.127 81.6895 -28.5156 81.6895 -25.6836 C 81.6895 -22.8027 79.6387 -21.2402 76.6113 -21.2402 Z"/>
  </g>
  <g id="Regular-M" transform="matrix(1 0 0 1 1392.45 1126)">
   <path d="M 27.7832 9.76562 L 87.0117 9.76562 C 97.2656 9.76562 102.344 4.6875 102.344 -5.37109 L 102.344 -64.9902 C 102.344 -75.0488 97.2656 -80.127 87.0117 -80.127 L 27.7832 -80.127 C 17.5781 -80.127 12.4512 -75.0977 12.4512 -64.9902 L 12.4512 -5.37109 C 12.4512 4.73633 17.5781 9.76562 27.7832 9.76562 Z M 38.0859 -40.7715 C 35.4492 -40.7715 33.6426 -42.041 33.6426 -44.6289 C 33.6426 -47.2656 35.3516 -48.584 38.0859 -48.584 L 76.6602 -48.584 C 79.3945 -48.584 81.1035 -47.2656 81.1035 -44.6289 C 81.1035 -42.041 79.2969 -40.7715 76.6602 -40.7715 Z M 38.0859 -21.7773 C 35.4492 -21.7773 33.6426 -23.0957 33.6426 -25.6836 C 33.6426 -28.3203 35.3516 -29.6387 38.0859 -29.6387 L 76.6602 -29.6387 C 79.3945 -29.6387 81.1035 -28.3203 81.1035 -25.6836 C 81.1035 -23.0957 79.2969 -21.7773 76.6602 -21.7773 Z"/>
  </g>
  <g id="Light-M" transform="matrix(1 0 0 1 1096.47 1126)">
   <path d="M 26.8555 9.0332 L 86.4746 9.0332 C 95.9961 9.0332 100.879 4.15039 100.879 -5.22461 L 100.879 -65.0879 C 100.879 -74.5117 95.9961 -79.3945 86.4746 -79.3945 L 26.8555 -79.3945 C 17.334 -79.3945 12.4512 -74.5605 12.4512 -65.0879 L 12.4512 -5.22461 C 12.4512 4.19922 17.334 9.0332 26.8555 9.0332 Z M 36.4746 -41.4551 C 34.4727 -41.4551 33.1055 -42.4805 33.1055 -44.4824 C 33.1055 -46.4844 34.4238 -47.5586 36.4746 -47.5586 L 76.7578 -47.5586 C 78.8086 -47.5586 80.1758 -46.4844 80.1758 -44.4824 C 80.1758 -42.4805 78.7598 -41.4551 76.7578 -41.4551 Z M 36.4746 -22.8516 C 34.4727 -22.8516 33.1055 -23.877 33.1055 -25.8789 C 33.1055 -27.8809 34.4238 -28.9062 36.4746 -28.9062 L 76.7578 -28.9062 C 78.8086 -28.9062 80.1758 -27.8809 80.1758 -25.8789 C 80.1758 -23.877 78.7598 -22.8516 76.7578 -22.8516 Z"/>
  </g>
  <g id="Thin-M" transform="matrix(1 0 0 1 800.758 1126)">
   <path d="M 25.6348 8.05664 L 85.7422 8.05664 C 94.3848 8.05664 98.877 3.4668 98.877 -5.0293 L 98.877 -65.2344 C 98.877 -73.7305 94.3848 -78.3691 85.7422 -78.3691 L 25.6348 -78.3691 C 16.9922 -78.3691 12.4512 -73.877 12.4512 -65.2344 L 12.4512 -5.0293 C 12.4512 3.56445 16.9922 8.05664 25.6348 8.05664 Z M 34.375 -42.4316 C 33.252 -42.4316 32.373 -43.0664 32.373 -44.2871 C 32.373 -45.4102 33.2031 -46.1426 34.375 -46.1426 L 76.9043 -46.1426 C 78.0762 -46.1426 78.9062 -45.4102 78.9062 -44.2871 C 78.9062 -43.0664 78.0273 -42.4316 76.9043 -42.4316 Z M 34.375 -24.2676 C 33.252 -24.2676 32.373 -24.9512 32.373 -26.123 C 32.373 -27.2949 33.2031 -27.9785 34.375 -27.9785 L 76.9043 -27.9785 C 78.0762 -27.9785 78.9062 -27.2949 78.9062 -26.123 C 78.9062 -24.9512 78.0273 -24.2676 76.9043 -24.2676 Z"/>
  </g>
  <g id="Ultralight-M" transform="matrix(1 0 0 1 504.535 1126)">
   <path d="M 25 7.56836 L 85.3516 7.56836 C 93.5059 7.56836 97.9004 3.125 97.9004 -4.98047 L 97.9004 -65.2832 C 97.9004 -73.3887 93.5059 -77.832 85.3516 -77.832 L 25 -77.832 C 16.7969 -77.832 12.4512 -73.4863 12.4512 -65.2832 L 12.4512 -4.98047 C 12.4512 3.22266 16.7969 7.56836 25 7.56836 Z M 33.3008 -42.9199 C 32.5684 -42.9199 31.9824 -43.4082 31.9824 -44.1406 C 31.9824 -44.873 32.6172 -45.4102 33.3008 -45.4102 L 76.9531 -45.4102 C 77.6855 -45.4102 78.2715 -44.873 78.2715 -44.1406 C 78.2715 -43.4082 77.6855 -42.9199 76.9531 -42.9199 Z M 33.3008 -24.9512 C 32.5684 -24.9512 31.9824 -25.5371 31.9824 -26.2207 C 31.9824 -27.002 32.6172 -27.4902 33.3008 -27.4902 L 76.9531 -27.4902 C 77.6855 -27.4902 78.2715 -27.002 78.2715 -26.2207 C 78.2715 -25.5371 77.6855 -24.9512 76.9531 -24.9512 Z"/>
  </g>
  <g id="Black-S" transform="matrix(1 0 0 1 2885.5 696)">
   <path d="M 25 2.92969 L 70.8008 2.92969 C 80.3711 2.92969 86.0352 -2.73438 86.0352 -12.3047 L 86.0352 -58.1055 C 86.0352 -67.6758 80.3711 -73.3398 70.8008 -73.3398 L 25 -73.3398 C 15.4297 -73.3398 9.76562 -67.6758 9.76562 -58.1055 L 9.76562 -12.3047 C 9.76562 -2.73438 15.4297 2.92969 25 2.92969 Z M 36.8652 -37.4512 C 33.1543 -37.4512 30.7617 -39.502 30.7617 -42.6758 C 30.7617 -45.9473 33.1055 -47.9004 36.8652 -47.9004 L 59.9121 -47.9004 C 63.623 -47.9004 65.9668 -45.8496 65.9668 -42.6758 C 65.9668 -39.502 63.5742 -37.4512 59.8633 -37.4512 Z M 36.8652 -22.4121 C 33.1543 -22.4121 30.7617 -24.4629 30.7617 -27.6367 C 30.7617 -30.8594 33.1055 -32.8613 36.8652 -32.8613 L 59.9121 -32.8613 C 63.623 -32.8613 65.9668 -30.8105 65.9668 -27.6367 C 65.9668 -24.4629 63.5742 -22.4121 59.8633 -22.4121 Z"/>
  </g>
  <g id="Heavy-S" transform="matrix(1 0 0 1 2589.4 696)">
   <path d="M 24.3652 2.34375 L 70.2637 2.34375 C 79.541 2.34375 84.8145 -2.97852 84.8145 -12.207 L 84.8145 -58.2031 C 84.8145 -67.4316 79.541 -72.7539 70.2637 -72.7539 L 24.3652 -72.7539 C 15.0879 -72.7539 9.76562 -67.4316 9.76562 -58.2031 L 9.76562 -12.207 C 9.76562 -2.97852 15.0879 2.34375 24.3652 2.34375 Z M 35.4004 -37.8906 C 31.9824 -37.8906 29.7852 -39.6973 29.7852 -42.6758 C 29.7852 -45.752 31.9336 -47.5098 35.4004 -47.5098 L 59.9609 -47.5098 C 63.3789 -47.5098 65.5273 -45.6543 65.5273 -42.6758 C 65.5273 -39.6973 63.2812 -37.8906 59.9121 -37.8906 Z M 35.4004 -22.8516 C 31.9824 -22.8516 29.7852 -24.6582 29.7852 -27.6367 C 29.7852 -30.6641 31.9336 -32.4707 35.4004 -32.4707 L 59.9609 -32.4707 C 63.3789 -32.4707 65.5273 -30.6152 65.5273 -27.6367 C 65.5273 -24.6582 63.2812 -22.8516 59.9121 -22.8516 Z"/>
  </g>
  <g id="Bold-S" transform="matrix(1 0 0 1 2293.35 696)">
   <path d="M 23.6328 1.66016 L 69.6289 1.66016 C 78.6133 1.66016 83.4961 -3.22266 83.4961 -12.1094 L 83.4961 -58.3008 C 83.4961 -67.1875 78.6133 -72.0703 69.6289 -72.0703 L 23.6328 -72.0703 C 14.6973 -72.0703 9.76562 -67.1875 9.76562 -58.3008 L 9.76562 -12.1094 C 9.76562 -3.22266 14.6973 1.66016 23.6328 1.66016 Z M 33.7402 -38.3301 C 30.7129 -38.3301 28.7109 -39.9414 28.7109 -42.6758 C 28.7109 -45.5078 30.6152 -47.0703 33.7402 -47.0703 L 59.9609 -47.0703 C 63.0859 -47.0703 64.9902 -45.459 64.9902 -42.6758 C 64.9902 -39.9414 62.9883 -38.3301 59.9609 -38.3301 Z M 33.7402 -23.291 C 30.7129 -23.291 28.7109 -24.9023 28.7109 -27.6367 C 28.7109 -30.4199 30.6152 -32.0312 33.7402 -32.0312 L 59.9609 -32.0312 C 63.0859 -32.0312 64.9902 -30.4199 64.9902 -27.6367 C 64.9902 -24.9023 62.9883 -23.291 59.9609 -23.291 Z"/>
  </g>
  <g id="Semibold-S" transform="matrix(1 0 0 1 1997.1 696)">
   <path d="M 23.0957 1.17188 L 69.1895 1.17188 C 77.9297 1.17188 82.5684 -3.36914 82.5684 -12.0117 L 82.5684 -58.3984 C 82.5684 -67.041 77.9297 -71.582 69.1895 -71.582 L 23.0957 -71.582 C 14.4043 -71.582 9.76562 -67.041 9.76562 -58.3984 L 9.76562 -12.0117 C 9.76562 -3.36914 14.4043 1.17188 23.0957 1.17188 Z M 32.6172 -38.6719 C 29.7852 -38.6719 27.9297 -40.0879 27.9297 -42.6758 C 27.9297 -45.3125 29.7363 -46.7773 32.6172 -46.7773 L 60.0098 -46.7773 C 62.8418 -46.7773 64.6484 -45.3125 64.6484 -42.6758 C 64.6484 -40.0879 62.793 -38.6719 59.9609 -38.6719 Z M 32.6172 -23.6328 C 29.7852 -23.6328 27.9297 -25.0488 27.9297 -27.6367 C 27.9297 -30.2734 29.7363 -31.7383 32.6172 -31.7383 L 60.0098 -31.7383 C 62.8418 -31.7383 64.6484 -30.2734 64.6484 -27.6367 C 64.6484 -25.0488 62.793 -23.6328 59.9609 -23.6328 Z"/>
  </g>
  <g id="Medium-S" transform="matrix(1 0 0 1 1700.75 696)">
   <path d="M 22.7051 0.830078 L 68.8965 0.830078 C 77.4414 0.830078 81.8359 -3.51562 81.8359 -11.9629 L 81.8359 -58.4473 C 81.8359 -66.8945 77.4414 -71.2402 68.8965 -71.2402 L 22.7051 -71.2402 C 14.209 -71.2402 9.76562 -66.8945 9.76562 -58.4473 L 9.76562 -11.9629 C 9.76562 -3.51562 14.209 0.830078 22.7051 0.830078 Z M 31.7383 -38.916 C 29.1016 -38.916 27.3926 -40.1855 27.3926 -42.6758 C 27.3926 -45.2148 29.0039 -46.5332 31.7383 -46.5332 L 60.0098 -46.5332 C 62.6953 -46.5332 64.3555 -45.166 64.3555 -42.6758 C 64.3555 -40.1855 62.6465 -38.916 60.0098 -38.916 Z M 31.7383 -23.877 C 29.1016 -23.877 27.3926 -25.1465 27.3926 -27.6367 C 27.3926 -30.1758 29.0039 -31.4941 31.7383 -31.4941 L 60.0098 -31.4941 C 62.6953 -31.4941 64.3555 -30.1758 64.3555 -27.6367 C 64.3555 -25.1465 62.6465 -23.877 60.0098 -23.877 Z"/>
  </g>
  <g id="Regular-S" transform="matrix(1 0 0 1 1404.51 696)">
   <path d="M 22.2168 0.390625 L 68.457 0.390625 C 76.8066 0.390625 80.9082 -3.71094 80.9082 -11.9141 L 80.9082 -58.4961 C 80.9082 -66.6992 76.8066 -70.8008 68.457 -70.8008 L 22.2168 -70.8008 C 13.916 -70.8008 9.76562 -66.6992 9.76562 -58.4961 L 9.76562 -11.9141 C 9.76562 -3.71094 13.916 0.390625 22.2168 0.390625 Z M 30.6152 -39.209 C 28.2227 -39.209 26.6113 -40.332 26.6113 -42.6758 C 26.6113 -45.0195 28.125 -46.2402 30.6152 -46.2402 L 60.0098 -46.2402 C 62.5 -46.2402 64.0137 -45.0195 64.0137 -42.6758 C 64.0137 -40.332 62.4023 -39.209 60.0098 -39.209 Z M 30.6152 -24.1699 C 28.2227 -24.1699 26.6113 -25.3418 26.6113 -27.6855 C 26.6113 -30.0293 28.125 -31.2012 30.6152 -31.2012 L 60.0098 -31.2012 C 62.5 -31.2012 64.0137 -30.0293 64.0137 -27.6855 C 64.0137 -25.3418 62.4023 -24.1699 60.0098 -24.1699 Z"/>
  </g>
  <g id="Light-S" transform="matrix(1 0 0 1 1108.46 696)">
   <path d="M 21.3867 -0.292969 L 67.9688 -0.292969 C 75.7324 -0.292969 79.5898 -4.15039 79.5898 -11.7676 L 79.5898 -58.5938 C 79.5898 -66.2109 75.7324 -70.1172 67.9688 -70.1172 L 21.3867 -70.1172 C 13.6719 -70.1172 9.76562 -66.2598 9.76562 -58.5938 L 9.76562 -11.7676 C 9.76562 -4.15039 13.6719 -0.292969 21.3867 -0.292969 Z M 29.1992 -39.8438 C 27.3926 -39.8438 26.123 -40.7715 26.123 -42.5293 C 26.123 -44.3359 27.3438 -45.2637 29.1992 -45.2637 L 60.1074 -45.2637 C 62.0117 -45.2637 63.1836 -44.3359 63.1836 -42.5293 C 63.1836 -40.7715 61.9141 -39.8438 60.1074 -39.8438 Z M 29.1992 -25.1465 C 27.3926 -25.1465 26.123 -26.0254 26.123 -27.832 C 26.123 -29.6387 27.3438 -30.5664 29.1992 -30.5664 L 60.1074 -30.5664 C 62.0117 -30.5664 63.1836 -29.6387 63.1836 -27.832 C 63.1836 -26.0254 61.9141 -25.1465 60.1074 -25.1465 Z"/>
  </g>
  <g id="Thin-S" transform="matrix(1 0 0 1 812.599 696)">
   <path d="M 20.3125 -1.12305 L 67.334 -1.12305 C 74.2676 -1.12305 77.8809 -4.78516 77.8809 -11.6211 L 77.8809 -58.6914 C 77.8809 -65.5762 74.2676 -69.2383 67.334 -69.2383 L 20.3125 -69.2383 C 13.3789 -69.2383 9.76562 -65.625 9.76562 -58.6914 L 9.76562 -11.6211 C 9.76562 -4.6875 13.3789 -1.12305 20.3125 -1.12305 Z M 27.3438 -40.6738 C 26.2695 -40.6738 25.4883 -41.2598 25.4883 -42.334 C 25.4883 -43.4082 26.2695 -44.043 27.3438 -44.043 L 60.2051 -44.043 C 61.3281 -44.043 62.0605 -43.4082 62.0605 -42.334 C 62.0605 -41.2598 61.2793 -40.6738 60.2051 -40.6738 Z M 27.3438 -26.3672 C 26.2695 -26.3672 25.4883 -27.002 25.4883 -28.0273 C 25.4883 -29.1504 26.2695 -29.7363 27.3438 -29.7363 L 60.2051 -29.7363 C 61.3281 -29.7363 62.0605 -29.1504 62.0605 -28.0273 C 62.0605 -27.002 61.2793 -26.3672 60.2051 -26.3672 Z"/>
  </g>
  <g id="Ultralight-S" transform="matrix(1 0 0 1 516.352 696)">
   <path d="M 19.7754 -1.5625 L 66.9922 -1.5625 C 73.5352 -1.5625 76.9531 -5.12695 76.9531 -11.5234 L 76.9531 -58.7891 C 76.9531 -65.2344 73.5352 -68.75 66.9922 -68.75 L 19.7754 -68.75 C 13.2324 -68.75 9.76562 -65.2832 9.76562 -58.7891 L 9.76562 -11.5234 C 9.76562 -5.0293 13.2324 -1.5625 19.7754 -1.5625 Z M 26.3672 -41.1133 C 25.7324 -41.1133 25.1953 -41.5527 25.1953 -42.2363 C 25.1953 -42.9199 25.7324 -43.4082 26.3672 -43.4082 L 60.3027 -43.4082 C 60.9863 -43.4082 61.5234 -42.9199 61.5234 -42.2363 C 61.5234 -41.5527 60.9863 -41.1133 60.3027 -41.1133 Z M 26.3672 -27.002 C 25.7324 -27.002 25.1953 -27.4902 25.1953 -28.125 C 25.1953 -28.8574 25.7324 -29.2969 26.3672 -29.2969 L 60.3027 -29.2969 C 60.9863 -29.2969 61.5234 -28.8574 61.5234 -28.125 C 61.5234 -27.4902 60.9863 -27.002 60.3027 -27.002 Z"/>
  </g>
 </g>
</svg>
